<svg width="20" height="20" viewBox="0 0 20 20" fill="none" xmlns="http://www.w3.org/2000/svg">
    <g clip-path="url(#clip0_101_63)">
        <path d="M10 18.75C7.67936 18.75 5.45376 17.8281 3.81282 16.1872C2.17187 14.5462 1.25 12.3206 1.25 10C1.25 7.67936 2.17187 5.45376 3.81282 3.81282C5.45376 2.17187 7.67936 1.25 10 1.25C12.3206 1.25 14.5462 2.17187 16.1872 3.81282C17.8281 5.45376 18.75 7.67936 18.75 10C18.75 12.3206 17.8281 14.5462 16.1872 16.1872C14.5462 17.8281 12.3206 18.75 10 18.75ZM10 20C12.6522 20 15.1957 18.9464 17.0711 17.0711C18.9464 15.1957 20 12.6522 20 10C20 7.34784 18.9464 4.8043 17.0711 2.92893C15.1957 1.05357 12.6522 0 10 0C7.34784 0 4.8043 1.05357 2.92893 2.92893C1.05357 4.8043 0 7.34784 0 10C0 12.6522 1.05357 15.1957 2.92893 17.0711C4.8043 18.9464 7.34784 20 10 20Z" fill="#05FF00"/>
        <path d="M13.7126 6.2125C13.7037 6.22113 13.6953 6.23031 13.6876 6.24L9.34631 11.7712L6.73006 9.15375C6.55234 8.98815 6.31728 8.898 6.0744 8.90228C5.83153 8.90657 5.5998 9.00496 5.42803 9.17672C5.25626 9.34849 5.15787 9.58022 5.15359 9.8231C5.1493 10.066 5.23946 10.301 5.40506 10.4788L8.71256 13.7875C8.80166 13.8764 8.90776 13.9465 9.02454 13.9936C9.14131 14.0406 9.26637 14.0637 9.39224 14.0613C9.51811 14.059 9.64223 14.0313 9.75718 13.98C9.87213 13.9286 9.97556 13.8547 10.0613 13.7625L15.0513 7.525C15.2212 7.34666 15.3141 7.10862 15.3099 6.86233C15.3057 6.61605 15.2048 6.38131 15.0289 6.20887C14.853 6.03643 14.6163 5.94014 14.37 5.94081C14.1237 5.94149 13.8875 6.03909 13.7126 6.2125Z" fill="#05FF00"/>
    </g>
    <defs>
        <clipPath id="clip0_101_63">
        <rect width="20" height="20" fill="white"/>
        </clipPath>
    </defs>
</svg>
